<?xml version="1.0" ?><svg id="Icon" viewBox="0 0 64 64" xmlns="http://www.w3.org/2000/svg" xmlns:xlink="http://www.w3.org/1999/xlink"><defs><style>.cls-1{fill:url(#linear-gradient);}.cls-2{fill:#ffe081;}.cls-3{fill:url(#linear-gradient-2);}.cls-4{fill:#edeff0;}.cls-5{fill:#ffd54f;}</style><linearGradient gradientUnits="userSpaceOnUse" id="linear-gradient" x1="32" x2="32" y1="52.743" y2="10.397"><stop offset="0" stop-color="#ffcb29"/><stop offset="1" stop-color="#f9a01b"/></linearGradient><linearGradient gradientUnits="userSpaceOnUse" id="linear-gradient-2" x1="32" x2="32" y1="48.941" y2="62.609"><stop offset="0" stop-color="#90a4ae"/><stop offset="1" stop-color="#546f7a"/></linearGradient></defs><path class="cls-1" d="M48,28.469A16,16,0,1,0,22.121,41.052a9.739,9.739,0,0,1,3.6,7.684V50.48H38.277V48.735a9.766,9.766,0,0,1,3.619-7.7A15.966,15.966,0,0,0,48,28.469Z"/><path class="cls-2" d="M36.317,29.625a1,1,0,0,0-1,1v.533a3.317,3.317,0,0,1-6.634,0v-.533a1,1,0,0,0-2,0v.533A5.321,5.321,0,0,0,31,36.373V50.48a1,1,0,0,0,2,0V36.373a5.321,5.321,0,0,0,4.317-5.215v-.533A1,1,0,0,0,36.317,29.625Z"/><rect class="cls-3" height="9.02" rx="2" width="17.634" x="23.183" y="50.48"/><path class="cls-4" d="M33.78,53.99H30.22a1,1,0,0,0,0,2h3.56a1,1,0,0,0,0-2Z"/><path class="cls-5" d="M32,4.5a1,1,0,0,0-1,1V7.866a1,1,0,0,0,2,0V5.5A1,1,0,0,0,32,4.5Z"/><path class="cls-5" d="M50.385,12.7l-1.674,1.674a1,1,0,1,0,1.414,1.414L51.8,14.115A1,1,0,0,0,50.385,12.7Z"/><path class="cls-5" d="M59,31.5H56.634a1,1,0,0,0,0,2H59a1,1,0,0,0,0-2Z"/><path class="cls-5" d="M13.615,12.7A1,1,0,0,0,12.2,14.115l1.674,1.674a1,1,0,1,0,1.414-1.414Z"/><path class="cls-5" d="M7.366,31.5H5a1,1,0,0,0,0,2H7.366a1,1,0,0,0,0-2Z"/></svg>