<?xml version="1.0" ?><svg style="enable-background:new 0 0 32 32;" version="1.1" viewBox="0 0 32 32" xml:space="preserve" xmlns="http://www.w3.org/2000/svg" xmlns:xlink="http://www.w3.org/1999/xlink"><style type="text/css">
	.st0{fill:#B9F3F8;}
	.st1{fill:#55C1FA;}
	.st2{fill:#FBC34E;}
	.st3{opacity:0.05;}
	.st4{fill:#FFFFFF;}
	.st5{fill:#7A442A;}
	.st6{fill:#C77C58;}
	.st7{fill:#E4EDF2;}
	.st8{fill:#F25949;}
	.st9{fill:#FA9B55;}
	.st10{fill:#E5A533;}
	.st11{fill:#6FA7AB;}
	.st12{fill:#20A56C;}
	.st13{fill:#F2C09E;}
	.st14{fill:#F4E8D0;}
	.st15{fill:#F2AB38;}
	.st16{fill:#393B3D;}
	.st17{fill:#ACE4E5;}
	.st18{fill:#659899;}
	.st19{fill:#E3FAFC;}
	.st20{fill:#DDF1F2;}
	.st21{fill:#16F293;}
	.st22{fill:#5C3320;}
	.st23{fill:#AD410D;}
	.st24{fill:#8B9CA5;}
	.st25{fill:#B26C50;}
	.st26{fill:#DAE1E5;}
	.st27{fill:#425158;}
	.st28{fill:#829299;}
	.st29{fill:#A5795C;}
	.st30{fill:#7A7468;}
	.st31{fill:#7B3ABF;}
	.st32{fill:#B564FF;}
	.st33{fill:#2B617D;}
</style><g id="Magnifier"/><g id="Gear"/><g id="Home"/><g id="Shield"/><g id="Star"/><g id="Flash"/><g id="Heart"/><g id="Hearts"/><g id="Shopping_Bag"/><g id="Token"/><g id="Warning"/><g id="Warning_B"/><g id="Chat"/><g id="Diamond"/><g id="Hanger"/><g id="Warning_C"/><g id="Potion"/><g id="Hourglass"/><g id="Trophy"/><g id="Bomb"/><g id="Gem"/><g id="Spell_Book"/><g id="User"/><g id="Users"/><g id="Treasure_Chest"/><g id="Treasure_Chest_Open"/><g id="Sack"/><g id="Fishing_Pin"/><g id="Sword"/><g id="Sword_And_Shield"/><g id="Backpack"/><g id="Key"/><g id="Meat"/><g id="Skull"/><g id="Store"/><g id="Helmet"/><g id="Anvil"/><g id="Axe"/><g id="Spear"/><g id="Food"/><g id="Bow"/><g id="Scroll"/><g id="Armor"/><g id="Hat"/><g id="Wand"/><g id="Map"/><g id="Mushroom"/><g id="Feather"><g><path class="st7" d="M28.261,4.095c-5.827-1.395-12.466,0.124-16.912,3.858c-4.302,3.581-6.221,8.642-5.138,13.514    c0.023,0.116,0.058,0.229,0.103,0.339c3.034-3.406,6.263-6.39,10.304-9.543c0.436-0.341,1.062-0.263,1.403,0.173    c0.34,0.436,0.263,1.063-0.173,1.403c-3.89,3.036-7.007,5.909-9.931,9.174c0.072,0.011,0.14,0.037,0.213,0.041    c0.296,0.014,0.593,0.021,0.891,0.021c4.638,0,9.426-1.625,13.585-4.627c1.265-0.925,2.385-1.921,3.33-2.958    c0.404-0.455,0.275-1.096-0.11-1.521c0,0,0-0.01-0.01-0.01c-0.22-0.32-0.44-0.63-0.67-0.95c0.48-0.03,0.96-0.06,1.44-0.09    c0.01,0,0.01,0,0.01,0c0.598-0.047,1.285,0.04,1.633-0.548c1.205-2.053,1.816-4.245,1.769-6.323    C29.991,5.124,29.293,4.34,28.261,4.095z"/><path class="st2" d="M17.848,13.839c0.436-0.34,0.513-0.968,0.173-1.403c-0.341-0.436-0.968-0.514-1.403-0.173    c-4.041,3.154-7.27,6.138-10.304,9.543c-1.391,1.561-2.745,3.203-4.111,5.005c-0.334,0.439-0.247,1.067,0.193,1.4    c0.181,0.137,0.393,0.203,0.603,0.203c0.303,0,0.602-0.137,0.798-0.396c1.368-1.805,2.724-3.446,4.12-5.006    C10.841,19.748,13.958,16.875,17.848,13.839z"/></g></g><g id="Wings"/><g id="Fish"/></svg>