<?xml version="1.0" ?><svg id="Layer_1" style="enable-background:new 0 0 50 50;" version="1.1" viewBox="0 0 50 50" xml:space="preserve" xmlns="http://www.w3.org/2000/svg" xmlns:xlink="http://www.w3.org/1999/xlink"><style type="text/css">
	.st0{fill:#F0C4DB;}
	.st1{fill:#FF9D9C;}
	.st2{fill:#9BEAF9;}
	.st3{fill:#E9F4BC;}
	.st4{fill:#505050;}
	.st5{fill:#FEBECC;}
	.st6{fill:#FFFFFF;}
	.st7{fill:#FDE4A1;}
	.st8{fill:#FEE7B5;}
	.st9{fill:#CDF6FC;}
	.st10{fill:#F2C6DD;}
	.st11{opacity:0.1;}
</style><g><path class="st10" d="M39.59,43.88c0-9.61-7.64-17.65-17.25-17.75c-0.07,0-0.15,0-0.22,0c-11.6,0-21,9.4-21,21   c0,0.59,0.04,1.17,0.09,1.75h38.38V43.88z"/><g><g><path class="st1" d="M23.84,30.43h10.39c0,0,1.66,3.87-0.99,6.81L22.59,47.88c0,0-2.19-6.86,0.88-12.14L23.84,30.43z"/><path class="st1" d="M22.69,22.44l-3.12-6.67c0,0-3.87-1.66-6.81,0.99L2.12,27.4c0,0,6.87,2.19,12.14-0.87L22.69,22.44z"/></g><path class="st2" d="M37.7,27.04c-4.14,4.14-9.29,7.26-15.06,8.96L14,27.36C17.22,16.44,25.53,7.72,36.19,3.93    c3.73-1.33,7.75-2.06,11.94-2.06c-0.01,4.19-0.73,8.2-2.06,11.94C44.28,18.84,41.4,23.34,37.7,27.04z"/><path class="st1" d="M46.07,13.81c-2.39-0.39-4.68-1.52-6.52-3.36c-1.84-1.84-2.97-4.13-3.36-6.52c3.73-1.33,7.75-2.06,11.94-2.06    C48.12,6.07,47.4,10.08,46.07,13.81z"/><circle class="st6" cx="30.5" cy="19.51" r="6"/><path class="st7" d="M12.01,42.13c2.77-2.77-1.38-6.91-4.15-4.15c-2.75-2.75,5.49-5.49,8.24-8.24c1.38,1.38,2.77,2.77,4.15,4.15    C17.51,36.64,14.76,44.88,12.01,42.13z"/><g><path class="st4" d="M48.66,1.34c-0.14-0.14-0.33-0.22-0.53-0.22c-4.19,0-8.29,0.71-12.19,2.1c-2.37,0.84-4.67,1.94-6.82,3.26     c-0.35,0.22-0.46,0.68-0.24,1.03c0.21,0.35,0.68,0.46,1.03,0.25c0,0,0.01,0,0.01-0.01c1.81-1.11,3.74-2.04,5.71-2.81     c0.54,2.28,1.7,4.35,3.39,6.04c1.68,1.68,3.75,2.84,6.03,3.38c-1.73,4.52-4.43,8.7-7.88,12.15c-3.99,3.99-8.94,6.98-14.31,8.64     l-1.93-1.93c0,0-6.08-6.08-6.08-6.08c2.11-6.81,6.2-12.74,11.84-17.15c0.16-0.12,0.26-0.3,0.29-0.5c0.02-0.2-0.03-0.39-0.15-0.55     c-0.25-0.32-0.74-0.38-1.06-0.13c-2.33,1.82-4.4,3.89-6.19,6.16c-1.01-0.35-4.51-1.3-7.34,1.26L1.59,26.87     c-0.19,0.19-0.26,0.45-0.2,0.71c0.06,0.25,0.25,0.46,0.5,0.54c0.17,0.05,2.58,0.8,5.64,0.8c1.84,0,3.91-0.28,5.88-1.13     c0.02,0.03,0.03,0.07,0.05,0.09l1.69,1.69c-0.87,0.7-2.08,1.43-3.26,2.14c-2.55,1.53-4.96,2.97-5.17,4.73     c-0.09,0.7,0.17,1.35,0.76,1.94c0.29,0.29,0.77,0.29,1.06,0c1.07-1.07,2.32-0.77,3.09,0c0.77,0.77,1.07,2.02,0,3.09     c-0.29,0.29-0.29,0.77,0,1.06c0.51,0.51,1.08,0.77,1.67,0.77c0.09,0,0.17-0.01,0.26-0.02c1.76-0.22,3.2-2.62,4.73-5.17     c0.71-1.18,1.44-2.39,2.14-3.26l1.69,1.69c0.03,0.03,0.06,0.04,0.09,0.06c-2.27,5.25-0.42,11.23-0.33,11.51     c0.08,0.25,0.28,0.44,0.54,0.5c0.06,0.01,0.12,0.02,0.18,0.02c0.2,0,0.39-0.08,0.53-0.22l10.67-10.67     c2.55-2.82,1.58-6.32,1.23-7.33c1.12-0.88,2.19-1.83,3.21-2.84c3.81-3.81,6.76-8.48,8.55-13.51c1.38-3.89,2.09-7.99,2.1-12.19     C48.88,1.67,48.8,1.48,48.66,1.34z M3.59,27l9.67-9.67c1.9-1.72,4.25-1.37,5.37-1.07c-2.14,2.96-3.81,6.24-4.97,9.76     C10.07,27.96,5.69,27.43,3.59,27z M17,37.33c-1.16,1.93-2.6,4.33-3.63,4.46c-0.02,0-0.06,0-0.1,0c0.99-1.57,0.53-3.36-0.59-4.48     s-2.91-1.58-4.48-0.59c0-0.05,0-0.08,0-0.1c0.13-1.03,2.53-2.47,4.46-3.63c1.27-0.76,2.58-1.55,3.55-2.35l3.14,3.14     C18.56,34.75,17.77,36.06,17,37.33z M32.7,36.71l-9.7,9.7c-0.43-2.1-0.97-6.47,1-10.07c3.47-1.15,6.76-2.84,9.74-4.98     C34.05,32.47,34.4,34.82,32.7,36.71z M45.55,12.94c-2.07-0.46-3.95-1.5-5.47-3.02c-1.53-1.53-2.56-3.41-3.02-5.48     c3.32-1.11,6.78-1.73,10.31-1.81C47.28,6.18,46.66,9.63,45.55,12.94z"/><path class="st4" d="M27.84,8.96c0.16,0,0.3-0.04,0.43-0.13c0.34-0.23,0.42-0.7,0.19-1.04c-0.23-0.33-0.72-0.42-1.05-0.19     c-0.16,0.11-0.27,0.28-0.31,0.48c-0.03,0.2,0.01,0.4,0.13,0.56C27.37,8.84,27.6,8.96,27.84,8.96z"/><path class="st4" d="M23.74,19.51c0,1.8,0.7,3.5,1.98,4.77c1.27,1.27,2.97,1.98,4.77,1.98c1.8,0,3.5-0.7,4.77-1.98     c2.63-2.63,2.63-6.91,0-9.55c-1.27-1.27-2.97-1.98-4.77-1.98c-1.8,0-3.5,0.7-4.77,1.98C24.45,16.01,23.74,17.7,23.74,19.51z      M30.49,14.26c1.4,0,2.72,0.55,3.71,1.54c2.05,2.05,2.05,5.38,0,7.42c-0.99,0.99-2.31,1.54-3.71,1.54s-2.72-0.55-3.71-1.54     s-1.54-2.31-1.54-3.71c0-1.4,0.55-2.72,1.54-3.71S29.09,14.26,30.49,14.26z"/></g></g></g></svg>